<?xml version="1.0" encoding="utf-8"?>
<!-- Generator: Adobe Illustrator 19.1.0, SVG Export Plug-In . SVG Version: 6.00 Build 0)  -->
<svg version="1.1" id="Layer_1" xmlns="http://www.w3.org/2000/svg" xmlns:xlink="http://www.w3.org/1999/xlink" x="0px" y="0px"
	 viewBox="0 0 64 64" enable-background="new 0 0 64 64" xml:space="preserve">
<g id="Lighting-cloud">
	<path d="M51.2412415,15.7852001C50.6098404,6.9833999,43.2211418,0,34.2753563,0
		c-7.8159142,0-14.554615,5.2919998-16.4721146,12.7510004c-1.1928844-0.4356003-2.4467993-0.6553001-3.7416992-0.6553001
		c-6.0453997,0-10.9638996,4.9180002-10.9638996,10.9628992s4.9184999,10.9629002,10.9638996,10.9629002h37.7148132
		c5.0321846,0,9.1260033-4.0937996,9.1260033-9.1259995C60.9028397,19.6854992,56.4887428,15.4687996,51.2412415,15.7852001z
		 M51.7763557,32.0214996H14.0615425c-4.9428997,0-8.9638996-4.0205002-8.9638996-8.9629002
		s4.0210004-8.9628992,8.9638996-8.9628992c1.4101,0,2.7593002,0.3183994,4.0102005,0.9462996
		c0.282299,0.1435003,0.6142998,0.1426001,0.8954983,0.0010004c0.2823009-0.1407003,0.4810009-0.4063005,0.5372009-0.7168007
		C20.7959423,7.1835999,27.0078411,2,34.2753563,2c8.2241859,0,14.9570847,6.6894999,15.009285,14.9120998
		c0.0019989,0.2959003,0.1348,0.5762005,0.3623009,0.7646999c0.2276001,0.1884003,0.5274162,0.2656002,0.8184166,0.212801
		c0.434082-0.0799999,0.875-0.1201,1.310997-0.1201c3.929184,0,7.1260033,3.1962986,7.1260033,7.1259995
		S55.7055397,32.0214996,51.7763557,32.0214996z"/>
	<path d="M35.132843,45.8993988l-3.3101006,0.0331993l1.2588005-9.1454964
		c0.0634995-0.4609032-0.1991844-0.9053001-0.6343002-1.0713005c-0.4336014-0.1640015-0.9258003-0.0097008-1.1860008,0.3759995
		l-9.5874004,14.2373009c-0.2080002,0.309597-0.2270985,0.7080002-0.0492992,1.0360985
		c0.1777,0.3272018,0.5389996,0.5508003,0.8955002,0.5224991l3.5053158-0.0596008l-1.809,11.0098
		c-0.0772152,0.4707031,0.1888847,0.9316025,0.6361847,1.0986023C24.9672413,63.9794998,25.0859413,64,25.2026424,64
		c0.3388996,0,0.664999-0.1729012,0.8515987-0.4746017l9.9398994-16.1005974
		c0.1914024-0.3105011,0.1987-0.6991997,0.0195007-1.0166016C35.8344421,46.0908012,35.4668427,45.8583984,35.132843,45.8993988z
		 M27.0102425,58.1688995l1.183115-7.1982002c0.047884-0.2929993-0.0361156-0.5918007-0.2299995-0.8153992
		c-0.1899166-0.2206993-0.4663162-0.3466988-0.756815-0.3466988c-0.0054016,0-0.0111847,0-0.0166016,0l-2.7860985,0.0468979
		l6.1088982-9.0713005l-0.8291988,6.0233994c-0.0395012,0.2881012,0.048399,0.5791016,0.2402992,0.7979012
		c0.1924,0.2187004,0.4540997,0.3369026,0.7607002,0.3388023l2.6548138-0.0263023L27.0102425,58.1688995z"/>
</g>
<g>
</g>
<g>
</g>
<g>
</g>
<g>
</g>
<g>
</g>
<g>
</g>
<g>
</g>
<g>
</g>
<g>
</g>
<g>
</g>
<g>
</g>
<g>
</g>
<g>
</g>
<g>
</g>
<g>
</g>
</svg>
