<?xml version="1.0" encoding="utf-8"?>
<!-- Generator: Adobe Illustrator 19.1.0, SVG Export Plug-In . SVG Version: 6.00 Build 0)  -->
<svg version="1.1" id="Layer_1" xmlns="http://www.w3.org/2000/svg" xmlns:xlink="http://www.w3.org/1999/xlink" x="0px" y="0px"
	 viewBox="0 0 64 64" enable-background="new 0 0 64 64" xml:space="preserve">
<g id="Snow-cloud">
	<path d="M53.9716988,18.6792507c-0.232399,0-0.464901,0.0077991-0.6963005,0.0233994
		C52.6309013,8.9311504,44.4448013,1.15865,34.5278015,1.15865c-8.6738014,0-16.1469021,5.9014001-18.2236004,14.2021999
		c-1.3476954-0.5068007-2.7666006-0.7637005-4.2344007-0.7637005c-6.6552949,0-12.0697994,5.4140997-12.0697994,12.0684004
		c0,6.6553001,5.4145045,12.0693016,12.0697994,12.0693016h41.9018974C59.5015068,38.7348518,64,34.2358513,64,28.7065506
		S59.5015068,18.6792507,53.9716988,18.6792507z M53.9716988,36.7348518H12.0698004
		c-5.5526996,0-10.0697994-4.5166016-10.0697994-10.0693016c0-5.5517998,4.5171003-10.0683994,10.0697994-10.0683994
		c1.5845003,0,3.1001005,0.357399,4.5054007,1.0634995c0.2817001,0.1425991,0.6138,0.1425991,0.8955002,0.0009995
		c0.2821999-0.1406002,0.480999-0.4062996,0.5370998-0.7167988c1.4447994-7.9883013,8.3925991-13.7862015,16.5200005-13.7862015
		c9.1977997,0,16.7289963,7.4815001,16.7880974,16.6788006c0.0019989,0.2959003,0.1348,0.5751991,0.3633003,0.7646008
		c0.2285004,0.1875,0.5298004,0.2646999,0.8193054,0.2118988c0.4804955-0.0897999,0.9760933-0.1346989,1.4731941-0.1346989
		C58.3983994,20.6792507,62,24.2797508,62,28.7065506S58.3983994,36.7348518,53.9716988,36.7348518z"/>
	<path d="M42.1436005,50.8413506h-3.2532005l2.0964012-2.1894989c0.3817978-0.3984032,0.3681984-1.0312004-0.0307007-1.4140015
		c-0.3969994-0.3809013-1.0312996-0.3681984-1.4135933,0.0312004l-3.4209061,3.5723h-2.9780006v-3.1100006l3.5575981-3.2757988
		c0.4062004-0.3740005,0.4326019-1.0068016,0.0586014-1.4131012c-0.3740997-0.4062004-1.0069008-0.4315987-1.4131012-0.0575981
		l-2.2030983,2.0282974v-3.1717987c0-0.5527992-0.4477997-1-1-1c-0.5523014,0-1,0.4472008-1,1v3.2529984l-2.1884995-2.0957985
		c-0.3990002-0.3828011-1.0318012-0.3690987-1.4141006,0.0303001c-0.3817997,0.3983994-0.3682003,1.0312004,0.0303001,1.4131012
		l3.5723,3.4217987v2.9776001h-3.518095l-3.4209061-3.5723c-0.3817997-0.3993988-1.0151997-0.4121017-1.413599-0.0312004
		c-0.398901,0.3828011-0.4125996,1.0155983-0.0307007,1.4140015l2.0964012,2.1894989h-2.7131004c-0.5522995,0-1,0.4472008-1,1
		c0,0.5527,0.4477005,1,1,1h2.6306l-2.0275993,2.2020988c-0.3740005,0.4071999-0.3477001,1.0391006,0.0585995,1.4131012
		c0.1924,0.1777,0.4349995,0.2645988,0.6767006,0.2645988c0.2699986,0,0.5390987-0.1082993,0.7363987-0.3222008l3.2749004-3.5575981
		h3.6504002v3.517498l-3.5723,3.4229012c-0.398901,0.3818016-0.4120998,1.0145988-0.0303001,1.4131012
		c0.3822994,0.3993988,1.0151005,0.4139977,1.4141006,0.0303001l2.1884995-2.0965004v2.7126999c0,0.5527,0.4476986,1,1,1
		c0.5522003,0,1-0.4473,1-1v-2.6314011l2.2030983,2.028801c0.1919022,0.1767998,0.4345016,0.264698,0.6767006,0.264698
		c0.2701073,0,0.5391045-0.1083984,0.7359009-0.3223c0.3745003-0.4062004,0.3480988-1.0390968-0.0581017-1.4130974
		l-3.5575981-3.2765999v-3.6501007h3.1102982l3.2749023,3.5575981c0.1973,0.2139015,0.4662971,0.3222008,0.7362976,0.3222008
		c0.241703,0,0.4849014-0.0868988,0.6767998-0.2645988c0.4062004-0.3740005,0.4326057-1.0059013,0.058609-1.4131012
		l-2.027607-2.2020988h3.1707001c0.5522003,0,1-0.4473,1-1C43.1436005,51.2885513,42.6958008,50.8413506,42.1436005,50.8413506z"/>
</g>
<g>
</g>
<g>
</g>
<g>
</g>
<g>
</g>
<g>
</g>
<g>
</g>
<g>
</g>
<g>
</g>
<g>
</g>
<g>
</g>
<g>
</g>
<g>
</g>
<g>
</g>
<g>
</g>
<g>
</g>
</svg>
